<mxfile host="app.diagrams.net" modified="2023-06-01T09:42:00.481Z" agent="Mozilla/5.0 (X11; Linux x86_64; rv:109.0) Gecko/20100101 Firefox/113.0" etag="nbvuUgtqMpRKx31Q4K7y" version="21.3.6" type="device">
  <diagram id="C5RBs43oDa-KdzZeNtuy" name="Page-1">
    <mxGraphModel dx="1434" dy="729" grid="1" gridSize="10" guides="1" tooltips="1" connect="1" arrows="1" fold="1" page="1" pageScale="1" pageWidth="827" pageHeight="1169" math="0" shadow="0">
      <root>
        <mxCell id="WIyWlLk6GJQsqaUBKTNV-0" />
        <mxCell id="WIyWlLk6GJQsqaUBKTNV-1" parent="WIyWlLk6GJQsqaUBKTNV-0" />
        <mxCell id="Dx10VpCE7G8O7XH6TRlA-54" style="edgeStyle=orthogonalEdgeStyle;rounded=0;orthogonalLoop=1;jettySize=auto;html=1;exitX=0.5;exitY=1;exitDx=0;exitDy=0;entryX=0.5;entryY=0;entryDx=0;entryDy=0;" edge="1" parent="WIyWlLk6GJQsqaUBKTNV-1" source="WIyWlLk6GJQsqaUBKTNV-3" target="Dx10VpCE7G8O7XH6TRlA-23">
          <mxGeometry relative="1" as="geometry" />
        </mxCell>
        <mxCell id="WIyWlLk6GJQsqaUBKTNV-3" value="&lt;div&gt;/app&lt;br&gt;&lt;/div&gt;&lt;div&gt;(aab, cauid, ver_code, pack_name)&lt;br&gt;&lt;/div&gt;" style="rounded=1;whiteSpace=wrap;html=1;fontSize=12;glass=0;strokeWidth=1;shadow=0;" parent="WIyWlLk6GJQsqaUBKTNV-1" vertex="1">
          <mxGeometry x="100" y="60" width="210" height="40" as="geometry" />
        </mxCell>
        <mxCell id="Dx10VpCE7G8O7XH6TRlA-4" style="edgeStyle=orthogonalEdgeStyle;rounded=0;orthogonalLoop=1;jettySize=auto;html=1;exitX=0.5;exitY=1;exitDx=0;exitDy=0;entryX=0.5;entryY=0;entryDx=0;entryDy=0;" edge="1" parent="WIyWlLk6GJQsqaUBKTNV-1" source="WIyWlLk6GJQsqaUBKTNV-12" target="Dx10VpCE7G8O7XH6TRlA-0">
          <mxGeometry relative="1" as="geometry" />
        </mxCell>
        <mxCell id="WIyWlLk6GJQsqaUBKTNV-12" value="Sign App" style="rounded=1;whiteSpace=wrap;html=1;fontSize=12;glass=0;strokeWidth=1;shadow=0;" parent="WIyWlLk6GJQsqaUBKTNV-1" vertex="1">
          <mxGeometry x="165" y="190" width="80" height="40" as="geometry" />
        </mxCell>
        <mxCell id="Dx10VpCE7G8O7XH6TRlA-11" style="edgeStyle=orthogonalEdgeStyle;rounded=0;orthogonalLoop=1;jettySize=auto;html=1;exitX=0.5;exitY=1;exitDx=0;exitDy=0;entryX=0.5;entryY=0;entryDx=0;entryDy=0;" edge="1" parent="WIyWlLk6GJQsqaUBKTNV-1" source="Dx10VpCE7G8O7XH6TRlA-0" target="Dx10VpCE7G8O7XH6TRlA-5">
          <mxGeometry relative="1" as="geometry" />
        </mxCell>
        <mxCell id="Dx10VpCE7G8O7XH6TRlA-49" style="edgeStyle=orthogonalEdgeStyle;rounded=0;orthogonalLoop=1;jettySize=auto;html=1;exitX=0;exitY=0.5;exitDx=0;exitDy=0;entryX=0.5;entryY=0;entryDx=0;entryDy=0;" edge="1" parent="WIyWlLk6GJQsqaUBKTNV-1" source="Dx10VpCE7G8O7XH6TRlA-0" target="Dx10VpCE7G8O7XH6TRlA-47">
          <mxGeometry relative="1" as="geometry" />
        </mxCell>
        <mxCell id="Dx10VpCE7G8O7XH6TRlA-0" value="try" style="shape=offPageConnector;whiteSpace=wrap;html=1;" vertex="1" parent="WIyWlLk6GJQsqaUBKTNV-1">
          <mxGeometry x="175" y="260" width="60" height="40" as="geometry" />
        </mxCell>
        <mxCell id="Dx10VpCE7G8O7XH6TRlA-12" style="edgeStyle=orthogonalEdgeStyle;rounded=0;orthogonalLoop=1;jettySize=auto;html=1;exitX=0.5;exitY=1;exitDx=0;exitDy=0;entryX=0.5;entryY=0;entryDx=0;entryDy=0;" edge="1" parent="WIyWlLk6GJQsqaUBKTNV-1" source="Dx10VpCE7G8O7XH6TRlA-5" target="Dx10VpCE7G8O7XH6TRlA-6">
          <mxGeometry relative="1" as="geometry" />
        </mxCell>
        <mxCell id="Dx10VpCE7G8O7XH6TRlA-27" style="edgeStyle=orthogonalEdgeStyle;rounded=0;orthogonalLoop=1;jettySize=auto;html=1;exitX=1;exitY=0;exitDx=0;exitDy=0;entryX=0;entryY=0.5;entryDx=0;entryDy=0;" edge="1" parent="WIyWlLk6GJQsqaUBKTNV-1" source="Dx10VpCE7G8O7XH6TRlA-5" target="Dx10VpCE7G8O7XH6TRlA-17">
          <mxGeometry relative="1" as="geometry" />
        </mxCell>
        <mxCell id="Dx10VpCE7G8O7XH6TRlA-5" value="Get Service" style="rounded=1;whiteSpace=wrap;html=1;" vertex="1" parent="WIyWlLk6GJQsqaUBKTNV-1">
          <mxGeometry x="160" y="360" width="90" height="40" as="geometry" />
        </mxCell>
        <mxCell id="Dx10VpCE7G8O7XH6TRlA-25" style="edgeStyle=orthogonalEdgeStyle;rounded=0;orthogonalLoop=1;jettySize=auto;html=1;exitX=0.5;exitY=1;exitDx=0;exitDy=0;entryX=0.5;entryY=0;entryDx=0;entryDy=0;" edge="1" parent="WIyWlLk6GJQsqaUBKTNV-1" source="Dx10VpCE7G8O7XH6TRlA-6" target="Dx10VpCE7G8O7XH6TRlA-24">
          <mxGeometry relative="1" as="geometry" />
        </mxCell>
        <mxCell id="Dx10VpCE7G8O7XH6TRlA-39" style="edgeStyle=orthogonalEdgeStyle;rounded=0;orthogonalLoop=1;jettySize=auto;html=1;exitX=1;exitY=0.25;exitDx=0;exitDy=0;entryX=0;entryY=0.5;entryDx=0;entryDy=0;" edge="1" parent="WIyWlLk6GJQsqaUBKTNV-1" source="Dx10VpCE7G8O7XH6TRlA-6" target="Dx10VpCE7G8O7XH6TRlA-31">
          <mxGeometry relative="1" as="geometry" />
        </mxCell>
        <mxCell id="Dx10VpCE7G8O7XH6TRlA-6" value="Upload app (gp)" style="rounded=1;whiteSpace=wrap;html=1;" vertex="1" parent="WIyWlLk6GJQsqaUBKTNV-1">
          <mxGeometry x="160" y="430" width="90" height="40" as="geometry" />
        </mxCell>
        <mxCell id="Dx10VpCE7G8O7XH6TRlA-15" value="" style="edgeStyle=orthogonalEdgeStyle;rounded=0;orthogonalLoop=1;jettySize=auto;html=1;" edge="1" parent="WIyWlLk6GJQsqaUBKTNV-1" source="Dx10VpCE7G8O7XH6TRlA-8" target="Dx10VpCE7G8O7XH6TRlA-9">
          <mxGeometry relative="1" as="geometry" />
        </mxCell>
        <mxCell id="Dx10VpCE7G8O7XH6TRlA-8" value="Get generated apks" style="rounded=1;whiteSpace=wrap;html=1;" vertex="1" parent="WIyWlLk6GJQsqaUBKTNV-1">
          <mxGeometry x="160" y="565" width="90" height="40" as="geometry" />
        </mxCell>
        <mxCell id="Dx10VpCE7G8O7XH6TRlA-16" style="edgeStyle=orthogonalEdgeStyle;rounded=0;orthogonalLoop=1;jettySize=auto;html=1;exitX=0.5;exitY=1;exitDx=0;exitDy=0;entryX=0.5;entryY=0;entryDx=0;entryDy=0;" edge="1" parent="WIyWlLk6GJQsqaUBKTNV-1" source="Dx10VpCE7G8O7XH6TRlA-9" target="Dx10VpCE7G8O7XH6TRlA-10">
          <mxGeometry relative="1" as="geometry" />
        </mxCell>
        <mxCell id="Dx10VpCE7G8O7XH6TRlA-9" value="Download universal apk" style="rounded=1;whiteSpace=wrap;html=1;" vertex="1" parent="WIyWlLk6GJQsqaUBKTNV-1">
          <mxGeometry x="160" y="635" width="90" height="40" as="geometry" />
        </mxCell>
        <mxCell id="Dx10VpCE7G8O7XH6TRlA-46" style="edgeStyle=orthogonalEdgeStyle;rounded=0;orthogonalLoop=1;jettySize=auto;html=1;exitX=0.5;exitY=1;exitDx=0;exitDy=0;entryX=0.5;entryY=0;entryDx=0;entryDy=0;" edge="1" parent="WIyWlLk6GJQsqaUBKTNV-1" source="Dx10VpCE7G8O7XH6TRlA-10" target="Dx10VpCE7G8O7XH6TRlA-45">
          <mxGeometry relative="1" as="geometry" />
        </mxCell>
        <mxCell id="Dx10VpCE7G8O7XH6TRlA-10" value="Upload apk (catappult)" style="rounded=1;whiteSpace=wrap;html=1;" vertex="1" parent="WIyWlLk6GJQsqaUBKTNV-1">
          <mxGeometry x="160" y="705" width="90" height="40" as="geometry" />
        </mxCell>
        <mxCell id="Dx10VpCE7G8O7XH6TRlA-21" style="edgeStyle=orthogonalEdgeStyle;rounded=0;orthogonalLoop=1;jettySize=auto;html=1;exitX=0.5;exitY=1;exitDx=0;exitDy=0;entryX=0.5;entryY=0;entryDx=0;entryDy=0;" edge="1" parent="WIyWlLk6GJQsqaUBKTNV-1" source="Dx10VpCE7G8O7XH6TRlA-17" target="Dx10VpCE7G8O7XH6TRlA-20">
          <mxGeometry relative="1" as="geometry" />
        </mxCell>
        <mxCell id="Dx10VpCE7G8O7XH6TRlA-17" value="Create Credentials" style="rounded=1;whiteSpace=wrap;html=1;" vertex="1" parent="WIyWlLk6GJQsqaUBKTNV-1">
          <mxGeometry x="333" y="300" width="90" height="30" as="geometry" />
        </mxCell>
        <mxCell id="Dx10VpCE7G8O7XH6TRlA-28" style="edgeStyle=orthogonalEdgeStyle;rounded=0;orthogonalLoop=1;jettySize=auto;html=1;exitX=0;exitY=0.5;exitDx=0;exitDy=0;entryX=1;entryY=0.5;entryDx=0;entryDy=0;" edge="1" parent="WIyWlLk6GJQsqaUBKTNV-1" source="Dx10VpCE7G8O7XH6TRlA-20" target="Dx10VpCE7G8O7XH6TRlA-5">
          <mxGeometry relative="1" as="geometry" />
        </mxCell>
        <mxCell id="Dx10VpCE7G8O7XH6TRlA-20" value="Create androidpublisher service client" style="rounded=1;whiteSpace=wrap;html=1;" vertex="1" parent="WIyWlLk6GJQsqaUBKTNV-1">
          <mxGeometry x="325" y="350" width="106" height="50" as="geometry" />
        </mxCell>
        <mxCell id="Dx10VpCE7G8O7XH6TRlA-53" style="edgeStyle=orthogonalEdgeStyle;rounded=0;orthogonalLoop=1;jettySize=auto;html=1;exitX=0.5;exitY=1;exitDx=0;exitDy=0;entryX=0.5;entryY=0;entryDx=0;entryDy=0;" edge="1" parent="WIyWlLk6GJQsqaUBKTNV-1" source="Dx10VpCE7G8O7XH6TRlA-23" target="WIyWlLk6GJQsqaUBKTNV-12">
          <mxGeometry relative="1" as="geometry" />
        </mxCell>
        <mxCell id="Dx10VpCE7G8O7XH6TRlA-23" value="Save aab in tmp" style="rounded=1;whiteSpace=wrap;html=1;fontSize=12;glass=0;strokeWidth=1;shadow=0;" vertex="1" parent="WIyWlLk6GJQsqaUBKTNV-1">
          <mxGeometry x="165" y="130" width="80" height="40" as="geometry" />
        </mxCell>
        <mxCell id="Dx10VpCE7G8O7XH6TRlA-29" style="edgeStyle=orthogonalEdgeStyle;rounded=0;orthogonalLoop=1;jettySize=auto;html=1;exitX=0.5;exitY=1;exitDx=0;exitDy=0;entryX=0.5;entryY=0;entryDx=0;entryDy=0;" edge="1" parent="WIyWlLk6GJQsqaUBKTNV-1" source="Dx10VpCE7G8O7XH6TRlA-24" target="Dx10VpCE7G8O7XH6TRlA-8">
          <mxGeometry relative="1" as="geometry" />
        </mxCell>
        <mxCell id="Dx10VpCE7G8O7XH6TRlA-24" value="Delete aab in tmp" style="rounded=1;whiteSpace=wrap;html=1;" vertex="1" parent="WIyWlLk6GJQsqaUBKTNV-1">
          <mxGeometry x="160" y="500" width="90" height="40" as="geometry" />
        </mxCell>
        <mxCell id="Dx10VpCE7G8O7XH6TRlA-41" style="edgeStyle=orthogonalEdgeStyle;rounded=0;orthogonalLoop=1;jettySize=auto;html=1;exitX=1;exitY=0.5;exitDx=0;exitDy=0;" edge="1" parent="WIyWlLk6GJQsqaUBKTNV-1" source="Dx10VpCE7G8O7XH6TRlA-31" target="Dx10VpCE7G8O7XH6TRlA-32">
          <mxGeometry relative="1" as="geometry" />
        </mxCell>
        <mxCell id="Dx10VpCE7G8O7XH6TRlA-31" value="Create edit" style="rounded=1;whiteSpace=wrap;html=1;" vertex="1" parent="WIyWlLk6GJQsqaUBKTNV-1">
          <mxGeometry x="309" y="420" width="90" height="30" as="geometry" />
        </mxCell>
        <mxCell id="Dx10VpCE7G8O7XH6TRlA-42" style="edgeStyle=orthogonalEdgeStyle;rounded=0;orthogonalLoop=1;jettySize=auto;html=1;exitX=0.5;exitY=1;exitDx=0;exitDy=0;entryX=0.5;entryY=0;entryDx=0;entryDy=0;" edge="1" parent="WIyWlLk6GJQsqaUBKTNV-1" source="Dx10VpCE7G8O7XH6TRlA-32" target="Dx10VpCE7G8O7XH6TRlA-36">
          <mxGeometry relative="1" as="geometry" />
        </mxCell>
        <mxCell id="Dx10VpCE7G8O7XH6TRlA-32" value="Upload bundle" style="rounded=1;whiteSpace=wrap;html=1;" vertex="1" parent="WIyWlLk6GJQsqaUBKTNV-1">
          <mxGeometry x="423" y="420" width="90" height="30" as="geometry" />
        </mxCell>
        <mxCell id="Dx10VpCE7G8O7XH6TRlA-43" style="edgeStyle=orthogonalEdgeStyle;rounded=0;orthogonalLoop=1;jettySize=auto;html=1;exitX=0;exitY=0.5;exitDx=0;exitDy=0;entryX=1;entryY=0.5;entryDx=0;entryDy=0;" edge="1" parent="WIyWlLk6GJQsqaUBKTNV-1" source="Dx10VpCE7G8O7XH6TRlA-36" target="Dx10VpCE7G8O7XH6TRlA-40">
          <mxGeometry relative="1" as="geometry" />
        </mxCell>
        <mxCell id="Dx10VpCE7G8O7XH6TRlA-36" value="Update Track" style="rounded=1;whiteSpace=wrap;html=1;" vertex="1" parent="WIyWlLk6GJQsqaUBKTNV-1">
          <mxGeometry x="423" y="470" width="92" height="30" as="geometry" />
        </mxCell>
        <mxCell id="Dx10VpCE7G8O7XH6TRlA-44" style="edgeStyle=orthogonalEdgeStyle;rounded=0;orthogonalLoop=1;jettySize=auto;html=1;exitX=0;exitY=0.5;exitDx=0;exitDy=0;entryX=1;entryY=0.75;entryDx=0;entryDy=0;" edge="1" parent="WIyWlLk6GJQsqaUBKTNV-1" source="Dx10VpCE7G8O7XH6TRlA-40" target="Dx10VpCE7G8O7XH6TRlA-6">
          <mxGeometry relative="1" as="geometry" />
        </mxCell>
        <mxCell id="Dx10VpCE7G8O7XH6TRlA-40" value="Commit edit" style="rounded=1;whiteSpace=wrap;html=1;" vertex="1" parent="WIyWlLk6GJQsqaUBKTNV-1">
          <mxGeometry x="308" y="470" width="92" height="30" as="geometry" />
        </mxCell>
        <mxCell id="Dx10VpCE7G8O7XH6TRlA-45" value="END" style="ellipse;whiteSpace=wrap;html=1;" vertex="1" parent="WIyWlLk6GJQsqaUBKTNV-1">
          <mxGeometry x="90" y="800" width="70" height="40" as="geometry" />
        </mxCell>
        <mxCell id="Dx10VpCE7G8O7XH6TRlA-55" style="edgeStyle=orthogonalEdgeStyle;rounded=0;orthogonalLoop=1;jettySize=auto;html=1;exitX=0.5;exitY=1;exitDx=0;exitDy=0;" edge="1" parent="WIyWlLk6GJQsqaUBKTNV-1" source="Dx10VpCE7G8O7XH6TRlA-47" target="Dx10VpCE7G8O7XH6TRlA-50">
          <mxGeometry relative="1" as="geometry" />
        </mxCell>
        <mxCell id="Dx10VpCE7G8O7XH6TRlA-47" value="&lt;div&gt;except HttpError&lt;/div&gt;&lt;div&gt;&lt;br&gt;&lt;/div&gt;" style="shape=offPageConnector;whiteSpace=wrap;html=1;" vertex="1" parent="WIyWlLk6GJQsqaUBKTNV-1">
          <mxGeometry x="40" y="360" width="60" height="50" as="geometry" />
        </mxCell>
        <mxCell id="Dx10VpCE7G8O7XH6TRlA-56" style="edgeStyle=orthogonalEdgeStyle;rounded=0;orthogonalLoop=1;jettySize=auto;html=1;exitX=0.5;exitY=1;exitDx=0;exitDy=0;entryX=0.5;entryY=0;entryDx=0;entryDy=0;" edge="1" parent="WIyWlLk6GJQsqaUBKTNV-1" source="Dx10VpCE7G8O7XH6TRlA-50" target="Dx10VpCE7G8O7XH6TRlA-45">
          <mxGeometry relative="1" as="geometry" />
        </mxCell>
        <mxCell id="Dx10VpCE7G8O7XH6TRlA-50" value="Notify Catappult" style="rounded=1;whiteSpace=wrap;html=1;" vertex="1" parent="WIyWlLk6GJQsqaUBKTNV-1">
          <mxGeometry x="25" y="525" width="90" height="40" as="geometry" />
        </mxCell>
      </root>
    </mxGraphModel>
  </diagram>
</mxfile>
